{
    "asset" : {
        "generator" : "Khronos glTF Blender I/O v1.6.16",
        "version" : "2.0"
    },
    "scene" : 0,
    "scenes" : [
        {
            "extras" : {},
            "name" : "Scene",
            "nodes" : [
                0,
                1,
                2
            ]
        }
    ],
    "nodes" : [
        {
            "mesh" : 0,
            "name" : "centro",
            "scale" : [
                3.568329334259033,
                3.568329334259033,
                3.568329334259033
            ]
        },
        {
            "mesh" : 1,
            "name" : "lipm",
            "scale" : [
                1.0420293807983398,
                1.0420293807983398,
                1.0420293807983398
            ]
        },
        {
            "mesh" : 2,
            "name" : "lima",
            "rotation" : [
                0,
                -0.7071068286895752,
                0,
                0.7071068286895752
            ],
            "scale" : [
                1.0420293807983398,
                1.0420293807983398,
                1.0420293807983398
            ]
        }
    ],
    "meshes" : [
        {
            "name" : "Icosphere",
            "primitives" : [
                {
                    "attributes" : {
                        "POSITION" : 0,
                        "NORMAL" : 1,
                        "TEXCOORD_0" : 2
                    },
                    "indices" : 3
                }
            ]
        },
        {
            "name" : "Icosphere.001",
            "primitives" : [
                {
                    "attributes" : {
                        "POSITION" : 4,
                        "NORMAL" : 5,
                        "TEXCOORD_0" : 6
                    },
                    "indices" : 7
                }
            ]
        },
        {
            "name" : "Icosphere.003",
            "primitives" : [
                {
                    "attributes" : {
                        "POSITION" : 8,
                        "NORMAL" : 9,
                        "TEXCOORD_0" : 10
                    },
                    "indices" : 7
                }
            ]
        }
    ],
    "accessors" : [
        {
            "bufferView" : 0,
            "componentType" : 5126,
            "count" : 60,
            "max" : [
                0.8944249749183655,
                1,
                0.8506399989128113
            ],
            "min" : [
                -0.8944249749183655,
                -1,
                -0.8506399989128113
            ],
            "type" : "VEC3"
        },
        {
            "bufferView" : 1,
            "componentType" : 5126,
            "count" : 60,
            "type" : "VEC3"
        },
        {
            "bufferView" : 2,
            "componentType" : 5126,
            "count" : 60,
            "type" : "VEC2"
        },
        {
            "bufferView" : 3,
            "componentType" : 5123,
            "count" : 60,
            "type" : "SCALAR"
        },
        {
            "bufferView" : 4,
            "componentType" : 5126,
            "count" : 120,
            "max" : [
                3.1976232528686523,
                4.262864112854004,
                0.8506399989128113
            ],
            "min" : [
                -3.1976232528686523,
                2.262864112854004,
                -0.8506399989128113
            ],
            "type" : "VEC3"
        },
        {
            "bufferView" : 5,
            "componentType" : 5126,
            "count" : 120,
            "type" : "VEC3"
        },
        {
            "bufferView" : 6,
            "componentType" : 5126,
            "count" : 120,
            "type" : "VEC2"
        },
        {
            "bufferView" : 7,
            "componentType" : 5123,
            "count" : 120,
            "type" : "SCALAR"
        },
        {
            "bufferView" : 8,
            "componentType" : 5126,
            "count" : 120,
            "max" : [
                3.1976232528686523,
                4.262864112854004,
                0.8506399989128113
            ],
            "min" : [
                -3.1976232528686523,
                2.262864112854004,
                -0.8506399989128113
            ],
            "type" : "VEC3"
        },
        {
            "bufferView" : 9,
            "componentType" : 5126,
            "count" : 120,
            "type" : "VEC3"
        },
        {
            "bufferView" : 10,
            "componentType" : 5126,
            "count" : 120,
            "type" : "VEC2"
        }
    ],
    "bufferViews" : [
        {
            "buffer" : 0,
            "byteLength" : 720,
            "byteOffset" : 0
        },
        {
            "buffer" : 0,
            "byteLength" : 720,
            "byteOffset" : 720
        },
        {
            "buffer" : 0,
            "byteLength" : 480,
            "byteOffset" : 1440
        },
        {
            "buffer" : 0,
            "byteLength" : 120,
            "byteOffset" : 1920
        },
        {
            "buffer" : 0,
            "byteLength" : 1440,
            "byteOffset" : 2040
        },
        {
            "buffer" : 0,
            "byteLength" : 1440,
            "byteOffset" : 3480
        },
        {
            "buffer" : 0,
            "byteLength" : 960,
            "byteOffset" : 4920
        },
        {
            "buffer" : 0,
            "byteLength" : 240,
            "byteOffset" : 5880
        },
        {
            "buffer" : 0,
            "byteLength" : 1440,
            "byteOffset" : 6120
        },
        {
            "buffer" : 0,
            "byteLength" : 1440,
            "byteOffset" : 7560
        },
        {
            "buffer" : 0,
            "byteLength" : 960,
            "byteOffset" : 9000
        }
    ],
    "buffers" : [
        {
            "byteLength" : 9960,
            "uri" : "ball.bin"
        }
    ]
}
